<svg width="30" height="30" viewBox="0 0 30 30" fill="none" xmlns="http://www.w3.org/2000/svg">
<path d="M5 5C5 3.61929 6.11929 2.5 7.5 2.5H22.5C23.8807 2.5 25 3.61929 25 5V26.25C25 26.7182 24.7383 27.1472 24.322 27.3615C23.9056 27.5757 23.4045 27.5393 23.0235 27.2672L15 21.5361L6.97655 27.2672C6.59553 27.5393 6.09436 27.5757 5.67802 27.3615C5.26168 27.1472 5 26.7182 5 26.25V5ZM22.5 5L7.5 5V23.821L14.2735 18.9828C14.7081 18.6724 15.2919 18.6724 15.7265 18.9828L22.5 23.821V5Z" fill="white"/>
</svg>
