<svg width="30" height="30" viewBox="0 0 30 30" fill="none" xmlns="http://www.w3.org/2000/svg">
<mask id="mask0_10_549" style="mask-type:alpha" maskUnits="userSpaceOnUse" x="0" y="0" width="30" height="30">
<path fill-rule="evenodd" clip-rule="evenodd" d="M9.375 21.5625C9.375 21.0447 9.79473 20.625 10.3125 20.625H27.1875C27.7053 20.625 28.125 21.0447 28.125 21.5625C28.125 22.0803 27.7053 22.5 27.1875 22.5H10.3125C9.79473 22.5 9.375 22.0803 9.375 21.5625Z" fill="black"/>
<path fill-rule="evenodd" clip-rule="evenodd" d="M9.375 14.0625C9.375 13.5447 9.79473 13.125 10.3125 13.125H27.1875C27.7053 13.125 28.125 13.5447 28.125 14.0625C28.125 14.5803 27.7053 15 27.1875 15H10.3125C9.79473 15 9.375 14.5803 9.375 14.0625Z" fill="black"/>
<path fill-rule="evenodd" clip-rule="evenodd" d="M9.375 6.5625C9.375 6.04473 9.79473 5.625 10.3125 5.625H27.1875C27.7053 5.625 28.125 6.04473 28.125 6.5625C28.125 7.08027 27.7053 7.5 27.1875 7.5H10.3125C9.79473 7.5 9.375 7.08027 9.375 6.5625Z" fill="black"/>
<path d="M4.20295 4.11291C4.35022 3.62903 5.02478 3.62903 5.17205 4.11291L5.47497 5.10825C5.54064 5.32402 5.7371 5.47116 5.95952 5.47116H6.99186C7.47697 5.47116 7.68522 6.09629 7.29973 6.3953L6.42148 7.07653C6.25259 7.20753 6.18206 7.43158 6.24481 7.63776L6.56983 8.70568C6.71561 9.18469 6.16978 9.57127 5.77741 9.26691L4.99537 8.66032C4.81361 8.51933 4.56139 8.51933 4.37963 8.66032L3.59759 9.26691C3.20522 9.57127 2.65939 9.18469 2.80518 8.70568L3.13019 7.63776C3.19294 7.43158 3.12241 7.20753 2.95352 7.07653L2.07527 6.3953C1.68978 6.09629 1.89803 5.47116 2.38314 5.47116H3.41548C3.6379 5.47116 3.83436 5.32402 3.90003 5.10825L4.20295 4.11291Z" fill="black"/>
<path d="M4.20295 11.6129C4.35022 11.129 5.02478 11.129 5.17205 11.6129L5.47497 12.6083C5.54064 12.824 5.7371 12.9712 5.95952 12.9712H6.99186C7.47697 12.9712 7.68522 13.5963 7.29973 13.8953L6.42148 14.5765C6.25259 14.7075 6.18206 14.9316 6.24481 15.1378L6.56983 16.2057C6.71561 16.6847 6.16978 17.0713 5.77741 16.7669L4.99537 16.1603C4.81361 16.0193 4.56139 16.0193 4.37963 16.1603L3.59759 16.7669C3.20522 17.0713 2.65939 16.6847 2.80518 16.2057L3.13019 15.1378C3.19294 14.9316 3.12241 14.7075 2.95352 14.5765L2.07527 13.8953C1.68978 13.5963 1.89803 12.9712 2.38314 12.9712H3.41548C3.6379 12.9712 3.83436 12.824 3.90003 12.6083L4.20295 11.6129Z" fill="black"/>
<path d="M4.20295 19.1129C4.35022 18.629 5.02478 18.629 5.17205 19.1129L5.47497 20.1083C5.54064 20.324 5.7371 20.4712 5.95952 20.4712H6.99186C7.47697 20.4712 7.68522 21.0963 7.29973 21.3953L6.42148 22.0765C6.25259 22.2075 6.18206 22.4316 6.24481 22.6378L6.56983 23.7057C6.71561 24.1847 6.16978 24.5713 5.77741 24.2669L4.99537 23.6603C4.81361 23.5193 4.56139 23.5193 4.37963 23.6603L3.59759 24.2669C3.20522 24.5713 2.65939 24.1847 2.80518 23.7057L3.13019 22.6378C3.19294 22.4316 3.12241 22.2075 2.95352 22.0765L2.07527 21.3953C1.68978 21.0963 1.89803 20.4712 2.38314 20.4712H3.41548C3.6379 20.4712 3.83436 20.324 3.90003 20.1083L4.20295 19.1129Z" fill="black"/>
</mask>
<g mask="url(#mask0_10_549)">
<rect width="30" height="30" fill="white"/>
</g>
</svg>
