<svg width="30" height="30" viewBox="0 0 30 30" fill="none" xmlns="http://www.w3.org/2000/svg">
<mask id="mask0_10_536" style="mask-type:alpha" maskUnits="userSpaceOnUse" x="0" y="0" width="30" height="30">
<path fill-rule="evenodd" clip-rule="evenodd" d="M3.75 25.3125V13.125H5.625V25.3125C5.625 25.8303 6.04473 26.25 6.5625 26.25H23.4375C23.9553 26.25 24.375 25.8303 24.375 25.3125V13.125H26.25V25.3125C26.25 26.8658 24.9908 28.125 23.4375 28.125H6.5625C5.0092 28.125 3.75 26.8658 3.75 25.3125Z" fill="black"/>
<path fill-rule="evenodd" clip-rule="evenodd" d="M24.375 4.68751V11.25L20.625 7.50001V4.68751C20.625 4.16974 21.0447 3.75001 21.5625 3.75001H23.4375C23.9553 3.75001 24.375 4.16974 24.375 4.68751Z" fill="black"/>
<path fill-rule="evenodd" clip-rule="evenodd" d="M13.6742 2.81251C14.4064 2.08028 15.5936 2.08028 16.3258 2.81251L28.7879 15.2746C29.154 15.6407 29.154 16.2343 28.7879 16.6004C28.4218 16.9665 27.8282 16.9665 27.4621 16.6004L15 4.13834L2.53791 16.6004C2.1718 16.9665 1.5782 16.9665 1.21209 16.6004C0.845971 16.2343 0.845971 15.6407 1.21209 15.2746L13.6742 2.81251Z" fill="black"/>
</mask>
<g mask="url(#mask0_10_536)">
<rect width="30" height="30" fill="white"/>
</g>
</svg>
