<svg width="132" height="42" viewBox="0 0 132 42" fill="none" xmlns="http://www.w3.org/2000/svg">
<path d="M49.492 14.768C49.492 15.16 49.4454 15.5894 49.352 16.056H38.516C38.572 17.232 38.8707 18.0814 39.412 18.604C39.9534 19.108 40.644 19.36 41.484 19.36C42.1934 19.36 42.7814 19.1827 43.248 18.828C43.7147 18.4734 44.0227 18.016 44.172 17.456H49.24C49.0347 18.5574 48.5867 19.5467 47.896 20.424C47.2054 21.2827 46.328 21.964 45.264 22.468C44.2 22.9534 43.0147 23.196 41.708 23.196C40.1774 23.196 38.8147 22.8787 37.62 22.244C36.444 21.5907 35.52 20.6574 34.848 19.444C34.176 18.2307 33.84 16.812 33.84 15.188C33.84 13.5454 34.1667 12.1267 34.82 10.932C35.492 9.71869 36.4254 8.79469 37.62 8.16002C38.8147 7.50669 40.1774 7.18002 41.708 7.18002C43.2574 7.18002 44.62 7.49736 45.796 8.13202C46.972 8.76669 47.8774 9.66269 48.512 10.82C49.1654 11.9587 49.492 13.2747 49.492 14.768ZM44.648 14.04C44.6667 13.0134 44.3867 12.248 43.808 11.744C43.248 11.2214 42.548 10.96 41.708 10.96C40.8307 10.96 40.1027 11.2214 39.524 11.744C38.9454 12.2667 38.6187 13.032 38.544 14.04H44.648Z" fill="white"/>
<path d="M62.46 7.20802C64.252 7.20802 65.6706 7.80536 66.716 9.00002C67.78 10.1947 68.312 11.8374 68.312 13.928V23H63.524V14.488C63.524 13.4427 63.244 12.6307 62.684 12.052C62.1426 11.4547 61.4146 11.156 60.5 11.156C59.5293 11.156 58.7546 11.464 58.176 12.08C57.616 12.696 57.336 13.5734 57.336 14.712V23H52.548V7.37602H57.336V10.232C57.784 9.29869 58.4466 8.56136 59.324 8.02002C60.22 7.47869 61.2653 7.20802 62.46 7.20802Z" fill="white"/>
<path d="M71.5818 2.98002C71.5818 2.25202 71.8432 1.65469 72.3658 1.18802C72.8885 0.702689 73.5792 0.460022 74.4378 0.460022C75.2965 0.460022 75.9872 0.702689 76.5098 1.18802C77.0325 1.65469 77.2938 2.25202 77.2938 2.98002C77.2938 3.68936 77.0325 4.28669 76.5098 4.77202C75.9872 5.23869 75.2965 5.47202 74.4378 5.47202C73.5792 5.47202 72.8885 5.23869 72.3658 4.77202C71.8432 4.28669 71.5818 3.68936 71.5818 2.98002ZM76.8178 7.37602V23H72.0298V7.37602H76.8178Z" fill="white"/>
<path d="M87.9916 7.18002C89.5409 7.18002 90.9223 7.50669 92.1356 8.16002C93.3676 8.79469 94.3289 9.71869 95.0196 10.932C95.7289 12.1454 96.0836 13.564 96.0836 15.188C96.0836 16.812 95.7289 18.2307 95.0196 19.444C94.3289 20.6574 93.3676 21.5907 92.1356 22.244C90.9223 22.8787 89.5409 23.196 87.9916 23.196C86.4423 23.196 85.0516 22.8787 83.8196 22.244C82.5876 21.5907 81.6169 20.6574 80.9076 19.444C80.2169 18.2307 79.8716 16.812 79.8716 15.188C79.8716 13.564 80.2169 12.1454 80.9076 10.932C81.6169 9.71869 82.5876 8.79469 83.8196 8.16002C85.0516 7.50669 86.4423 7.18002 87.9916 7.18002ZM87.9916 11.324C87.0769 11.324 86.3023 11.66 85.6676 12.332C85.0516 12.9854 84.7436 13.9374 84.7436 15.188C84.7436 16.4387 85.0516 17.3907 85.6676 18.044C86.3023 18.6974 87.0769 19.024 87.9916 19.024C88.9063 19.024 89.6716 18.6974 90.2876 18.044C90.9036 17.3907 91.2116 16.4387 91.2116 15.188C91.2116 13.9374 90.9036 12.9854 90.2876 12.332C89.6716 11.66 88.9063 11.324 87.9916 11.324Z" fill="white"/>
<path d="M114.666 7.37602V23H109.85V20.172C109.402 21.0867 108.73 21.8147 107.834 22.356C106.957 22.8974 105.93 23.168 104.754 23.168C102.962 23.168 101.534 22.5707 100.47 21.376C99.4251 20.1814 98.9024 18.5387 98.9024 16.448V7.37602H103.662V15.86C103.662 16.924 103.933 17.7547 104.474 18.352C105.034 18.9307 105.781 19.22 106.714 19.22C107.685 19.22 108.45 18.912 109.01 18.296C109.57 17.68 109.85 16.8027 109.85 15.664V7.37602H114.666Z" fill="white"/>
<path d="M124.21 7.18002C126.189 7.18002 127.766 7.67469 128.942 8.66402C130.137 9.65336 130.884 10.96 131.182 12.584H126.702C126.572 11.9494 126.273 11.4547 125.806 11.1C125.358 10.7267 124.789 10.54 124.098 10.54C123.557 10.54 123.146 10.6614 122.866 10.904C122.586 11.128 122.446 11.4547 122.446 11.884C122.446 12.3694 122.698 12.7334 123.202 12.976C123.725 13.2187 124.537 13.4614 125.638 13.704C126.833 13.984 127.813 14.2734 128.578 14.572C129.344 14.852 130.006 15.3187 130.566 15.972C131.126 16.6254 131.406 17.5027 131.406 18.604C131.406 19.5 131.164 20.2934 130.678 20.984C130.193 21.6747 129.493 22.216 128.578 22.608C127.664 23 126.581 23.196 125.33 23.196C123.221 23.196 121.532 22.7294 120.262 21.796C118.993 20.8627 118.218 19.528 117.938 17.792H122.558C122.633 18.464 122.913 18.9774 123.398 19.332C123.902 19.6867 124.546 19.864 125.33 19.864C125.872 19.864 126.282 19.7427 126.562 19.5C126.842 19.2387 126.982 18.9027 126.982 18.492C126.982 17.9507 126.721 17.568 126.198 17.344C125.694 17.1014 124.864 16.8494 123.706 16.588C122.549 16.3454 121.597 16.084 120.85 15.804C120.104 15.524 119.46 15.076 118.918 14.46C118.377 13.8254 118.106 12.9667 118.106 11.884C118.106 10.484 118.638 9.35469 119.702 8.49602C120.766 7.61869 122.269 7.18002 124.21 7.18002Z" fill="white"/>
<g clip-path="url(#clip0_250_751)">
<path d="M14.0248 0C18.3027 0 22.3593 1.9916 25.0423 5.49219C23.501 4.66678 21.8257 4.1546 20.1178 3.96584C17.5459 3.68221 14.8897 4.13623 12.4973 5.36669C9.17067 7.07669 6.09196 10.3855 6.09196 14.4278C6.09196 18.9344 9.64379 22.5871 14.0248 22.5871C17.3108 22.5871 20.1306 20.5322 21.3338 17.603C22.5885 14.5493 21.915 10.9987 19.6367 8.65507C18.997 7.99699 18.258 7.46236 17.4576 7.06853C23.2173 6.43289 28.8728 10.012 27.8879 16.6317C27.509 19.1752 26.4845 21.4994 24.9907 23.4237L24.8578 23.592L24.83 23.6277L24.8043 23.6584L24.6892 23.7991L24.6842 23.8053C23.8759 24.7756 22.9455 25.6357 21.916 26.358C19.719 27.8956 17.1531 28.7496 14.5297 28.8485L14.5019 28.8475C14.3442 28.8536 14.1845 28.8567 14.0258 28.8567C12.9367 28.8567 11.8774 28.7281 10.8588 28.4874L10.8538 28.4853L10.5682 28.4139L10.4254 28.3751L10.2627 28.3292L10.0971 28.2813L9.9582 28.2384L9.78761 28.1833L9.65966 28.1415L9.47021 28.0772L9.40773 28.0548L9.1677 27.967L8.88204 27.8548L8.59738 27.7354L8.33355 27.6181L8.31173 27.6068L8.07666 27.4967L8.01715 27.4681L7.83068 27.3742C3.19178 25.0204 0 20.1067 0 14.4278C0 6.45942 6.27942 0 14.0248 0Z" fill="white"/>
<path d="M14.4513 42C19.6635 42 23.8878 37.6557 23.8878 32.2941H17.8038C17.8038 34.1989 16.3041 35.7426 14.4513 35.7426C12.5995 35.7426 11.0988 34.1989 11.0988 32.2941H9.37897H5.01581C5.01581 37.6546 9.24011 42 14.4513 42Z" fill="white"/>
</g>
<defs>
<clipPath id="clip0_250_751">
<rect width="28" height="42" fill="white"/>
</clipPath>
</defs>
</svg>
